<?xml version="1.0" encoding="UTF-8"?>
<svg width="13px" height="13px" viewBox="0 0 13 13" version="1.1" xmlns="http://www.w3.org/2000/svg" xmlns:xlink="http://www.w3.org/1999/xlink">
    <!-- Generator: Sketch 55.2 (78181) - https://sketchapp.com -->
    <title>calendar-regular</title>
    <desc>Created with Sketch.</desc>
    <g id="Page-1" stroke="none" stroke-width="1" fill="none" fill-rule="evenodd">
        <g id="calendar-regular" fill="#B3B3B3" fill-rule="nonzero">
            <path d="M11.6071429,1.625 L10.2142857,1.625 L10.2142857,0.3046875 C10.2142857,0.137109375 10.0575893,0 9.86607143,0 L8.70535714,0 C8.51383929,0 8.35714286,0.137109375 8.35714286,0.3046875 L8.35714286,1.625 L4.64285714,1.625 L4.64285714,0.3046875 C4.64285714,0.137109375 4.48616071,0 4.29464286,0 L3.13392857,0 C2.94241071,0 2.78571429,0.137109375 2.78571429,0.3046875 L2.78571429,1.625 L1.39285714,1.625 C0.623883929,1.625 0,2.17089844 0,2.84375 L0,11.78125 C0,12.4541016 0.623883929,13 1.39285714,13 L11.6071429,13 C12.3761161,13 13,12.4541016 13,11.78125 L13,2.84375 C13,2.17089844 12.3761161,1.625 11.6071429,1.625 Z M11.4330357,11.78125 L1.56696429,11.78125 C1.47120536,11.78125 1.39285714,11.7126953 1.39285714,11.6289062 L1.39285714,4.0625 L11.6071429,4.0625 L11.6071429,11.6289062 C11.6071429,11.7126953 11.5287946,11.78125 11.4330357,11.78125 Z M1.39285714,2.66601562 L11.6071429,2.66601562 L11.6071429,3.70703125 L1.39285714,3.70703125 L1.39285714,2.66601562 Z" id="Shape"></path>
            <path d="M8.15401786,4.92578125 L8.15401786,10.5625 L6.52936126,10.5625 L6.52936126,6.36912287 C6.02695491,6.76768073 5.51803142,7.00681186 5.00257555,7.08652344 L4.84598214,5.87377486 C5.1787448,5.83961276 5.54901925,5.72431739 5.95681662,5.5278853 C6.36461399,5.33145321 6.65006787,5.13075387 6.81318681,4.92578125 L8.15401786,4.92578125 Z" id="1"></path>
        </g>
    </g>
</svg>