<?xml version="1.0" encoding="UTF-8"?>
<svg width="12px" height="12px" viewBox="0 0 12 12" version="1.1" xmlns="http://www.w3.org/2000/svg" xmlns:xlink="http://www.w3.org/1999/xlink">
    <!-- Generator: Sketch 55.1 (78136) - https://sketchapp.com -->
    <title>search</title>
    <desc>Created with Sketch.</desc>
    <g id="Page-1" stroke="none" stroke-width="1" fill="none" fill-rule="evenodd">
        <g id="search" fill="#B3B3B3" fill-rule="nonzero">
            <path d="M12,11.28125 L11.28125,12 L7.75,8.46875 C6.895829,9.156253 5.895839,9.5 4.75,9.5 C3.437493,9.5 2.317713,9.036463 1.390625,8.109375 C0.463537,7.182287 0,6.062507 0,4.75 C0,3.437493 0.463537,2.317713 1.390625,1.390625 C2.317713,0.463537 3.437493,0 4.75,0 C6.062507,0 7.182287,0.463537 8.109375,1.390625 C9.036463,2.317713 9.5,3.437493 9.5,4.75 C9.5,5.875006 9.156253,6.864579 8.46875,7.71875 L12,11.28125 Z M1.75,7.78125 C2.562504,8.593754 3.562494,9 4.75,9 C5.916673,9 6.916663,8.583337 7.75,7.75 C8.583337,6.916663 9,5.916673 9,4.75 C9,3.583327 8.583337,2.583337 7.75,1.75 C6.916663,0.916663 5.916673,0.5 4.75,0.5 C3.583327,0.5 2.583337,0.916663 1.75,1.75 C0.916663,2.583337 0.5,3.583327 0.5,4.75 C0.5,5.937506 0.916663,6.947913 1.75,7.78125 Z" id="ion-ios-search---Ionicons"></path>
        </g>
    </g>
</svg>