<?xml version="1.0" encoding="UTF-8"?>
<svg width="21px" height="21px" viewBox="0 0 21 21" version="1.1" xmlns="http://www.w3.org/2000/svg" xmlns:xlink="http://www.w3.org/1999/xlink">
    <!-- Generator: Sketch 55.1 (78136) - https://sketchapp.com -->
    <title>times-line</title>
    <desc>Created with Sketch.</desc>
    <g id="Page-1" stroke="none" stroke-width="1" fill="none" fill-rule="evenodd">
        <g id="times-line" transform="translate(-7.000000, -8.000000)" fill-rule="nonzero">
            <path d="M19.41,18 L27.7,9.71 C28.0397768,9.31323972 28.0169323,8.72180583 27.6475632,8.35243678 C27.2781942,7.98306773 26.6867603,7.9602232 26.29,8.3 L18,16.59 L9.71,8.29 C9.31787782,7.89787785 8.68212219,7.89787787 8.29000003,8.29000003 C7.89787787,8.68212219 7.89787785,9.31787782 8.29,9.71 L16.59,18 L8.29,26.29 C8.00462384,26.5343899 7.88031806,26.9181184 7.96818987,27.283419 C8.05606167,27.6487195 8.34128045,27.9339383 8.70658103,28.0218101 C9.0718816,28.1096819 9.45561012,27.9853762 9.7,27.7 L18,19.41 L26.29,27.7 C26.6867603,28.0397768 27.2781942,28.0169323 27.6475632,27.6475632 C28.0169323,27.2781942 28.0397768,26.6867603 27.7,26.29 L19.41,18 Z" id="Path" fill="#181818"></path>
            <rect id="Rectangle" fill-opacity="0" fill="#000000" x="0" y="0" width="36" height="36"></rect>
        </g>
    </g>
</svg>